<?xml version="1.0" standalone="no"?>
<!DOCTYPE svg PUBLIC "-//W3C//DTD SVG 20010904//EN"
 "http://www.w3.org/TR/2001/REC-SVG-20010904/DTD/svg10.dtd">
<svg version="1.0" xmlns="http://www.w3.org/2000/svg"
 width="920.000000pt" height="372.000000pt" viewBox="0 0 920.000000 372.000000"
 preserveAspectRatio="xMidYMid meet">

<g transform="translate(0.000000,372.000000) scale(0.100000,-0.100000)"
fill="#000000" stroke="none">
<path d="M2391 3634 c-237 -64 -430 -297 -431 -521 l0 -73 28 0 c46 0 142 29
201 60 167 90 285 276 299 472 5 77 5 78 -19 77 -13 0 -48 -7 -78 -15z"/>
<path d="M2380 3014 c-66 -11 -124 -29 -235 -71 -154 -58 -176 -58 -335 1
-170 64 -250 75 -366 52 -260 -51 -448 -237 -525 -521 -19 -68 -22 -107 -23
-255 0 -157 3 -187 28 -294 35 -152 75 -265 138 -390 106 -213 285 -434 393
-487 41 -19 65 -24 130 -23 70 0 93 6 182 42 187 76 295 78 469 7 158 -63 237
-68 341 -18 94 44 225 195 336 388 48 82 117 238 117 265 0 8 -26 28 -57 45
-74 38 -180 145 -220 220 -138 264 -72 555 170 747 l48 38 -73 72 c-79 79
-178 136 -278 162 -60 15 -200 27 -240 20z"/>
<path d="M5550 2585 l0 -345 55 0 55 0 0 165 0 165 29 32 c24 27 36 33 70 33
82 0 100 -48 101 -257 l0 -138 50 0 50 0 0 173 c0 188 -9 226 -63 275 -47 44
-152 42 -207 -4 l-30 -26 0 136 0 136 -55 0 -55 0 0 -345z"/>
<path d="M8350 2800 l0 -129 -36 24 c-47 32 -127 34 -184 5 -125 -64 -159
-272 -65 -395 64 -85 192 -97 263 -25 l30 29 6 -34 c7 -34 9 -35 51 -35 l45 0
0 345 0 345 -55 0 -55 0 0 -130z m-38 -189 c31 -28 33 -33 36 -110 3 -51 -1
-93 -8 -112 -40 -96 -168 -90 -210 11 -18 44 -9 153 16 187 45 60 114 70 166
24z"/>
<path d="M6965 2908 c-26 -15 -35 -28 -35 -55 0 -30 34 -63 65 -63 30 0 65 32
65 60 0 23 -42 70 -62 70 -7 0 -22 -6 -33 -12z"/>
<path d="M4296 2892 c-9 -14 -206 -629 -206 -642 0 -7 18 -10 52 -8 l52 3 29
93 28 92 108 0 108 0 28 -95 28 -95 53 0 c37 0 54 4 54 13 0 6 -46 154 -103
327 l-103 315 -61 3 c-34 2 -64 -1 -67 -6z m139 -349 c5 -23 4 -23 -79 -23
l-85 0 23 68 c13 37 31 100 41 141 l18 74 38 -118 c21 -65 40 -129 44 -142z"/>
<path d="M5290 2814 c-44 -13 -45 -15 -45 -56 0 -41 -1 -43 -32 -46 -31 -3
-33 -6 -33 -40 0 -35 2 -37 33 -37 l32 0 5 -160 c3 -103 10 -168 18 -183 25
-44 64 -57 155 -54 36 2 37 3 37 42 0 39 -1 40 -35 40 -22 0 -43 8 -55 20 -18
18 -20 33 -20 161 l0 141 55 -4 55 -3 0 38 0 37 -55 0 -55 0 0 60 c0 33 -3 60
-7 59 -5 -1 -28 -7 -53 -15z"/>
<path d="M6185 2701 c-82 -37 -125 -115 -125 -225 0 -170 119 -270 279 -235
108 23 177 122 175 250 -2 107 -55 187 -143 217 -51 18 -140 14 -186 -7z m162
-77 c38 -24 57 -73 57 -144 0 -77 -20 -122 -67 -151 -91 -57 -190 47 -172 181
16 114 101 167 182 114z"/>
<path d="M6763 2700 c-17 -10 -39 -32 -47 -47 l-15 -28 -1 43 0 42 -45 0 -45
0 0 -235 0 -235 50 0 50 0 0 128 c0 193 26 252 110 252 l40 0 0 50 c0 50 0 50
-32 50 -18 0 -47 -9 -65 -20z"/>
<path d="M7220 2701 c-50 -26 -75 -65 -75 -115 0 -61 25 -91 114 -136 49 -24
82 -47 86 -60 18 -55 -37 -90 -114 -73 -25 5 -53 13 -62 17 -13 5 -19 -1 -28
-25 -6 -18 -11 -35 -11 -40 0 -14 73 -31 136 -31 112 0 179 52 179 140 0 66
-24 96 -112 138 -93 45 -111 74 -70 110 32 27 55 29 109 10 34 -12 38 -12 43
5 3 11 7 28 10 38 4 14 -2 21 -26 30 -50 17 -139 14 -179 -8z"/>
<path d="M7642 2703 c-44 -21 -96 -84 -110 -132 -15 -49 -15 -148 -1 -192 32
-94 106 -141 222 -141 40 0 92 5 115 12 38 10 42 14 37 33 -4 12 -9 30 -11 39
-4 14 -10 15 -30 8 -42 -16 -152 -12 -184 6 -32 19 -60 63 -60 93 0 20 4 21
155 21 l155 0 0 63 c-1 96 -43 170 -113 196 -42 16 -137 13 -175 -6z m139 -63
c22 -12 49 -61 49 -90 0 -19 -6 -20 -105 -20 -90 0 -105 2 -105 16 0 22 37 81
58 94 22 13 78 13 103 0z"/>
<path d="M4692 2528 c2 -153 6 -188 21 -216 49 -89 182 -105 256 -32 l30 30 3
-32 c3 -31 5 -33 49 -36 l45 -3 0 235 -1 236 -52 0 -53 0 0 -156 c0 -128 -3
-161 -17 -185 -36 -61 -129 -64 -160 -6 -14 26 -18 63 -21 190 l-4 157 -50 0
-50 0 4 -182z"/>
<path d="M6940 2475 l0 -235 55 0 55 0 0 235 0 235 -55 0 -55 0 0 -235z"/>
<path d="M6000 1475 l0 -345 50 0 50 0 0 345 0 345 -50 0 -50 0 0 -345z"/>
<path d="M6230 1475 l0 -345 50 0 50 0 0 345 0 345 -50 0 -50 0 0 -345z"/>
<path d="M4158 1783 l-28 -4 0 -325 0 -324 55 0 55 0 0 140 0 140 41 0 c84 0
123 -37 144 -140 4 -19 13 -59 22 -87 l14 -53 56 0 c47 0 54 2 49 17 -4 9 -19
64 -33 121 -22 88 -32 110 -62 142 l-36 38 36 21 c43 24 79 90 79 142 0 57
-39 120 -90 149 -39 21 -59 24 -160 26 -63 1 -127 0 -142 -3z m232 -88 c38
-20 50 -43 50 -97 -1 -74 -44 -108 -137 -108 l-63 0 0 110 0 110 60 0 c35 0
74 -7 90 -15z"/>
<path d="M4739 1587 c-130 -69 -158 -301 -47 -404 56 -52 174 -71 276 -44 43
12 48 22 36 68 -5 18 -10 20 -37 12 -57 -16 -149 -11 -184 11 -34 20 -46 38
-57 83 l-6 27 161 0 162 0 -5 69 c-7 88 -41 152 -98 181 -56 28 -143 27 -201
-3z m145 -58 c25 -12 56 -63 56 -93 0 -14 -16 -16 -109 -16 l-110 0 10 33 c19
69 91 104 153 76z"/>
<path d="M5192 1593 c-46 -22 -75 -67 -76 -117 -1 -61 24 -92 110 -133 41 -20
80 -45 85 -56 30 -54 -30 -98 -110 -80 -25 5 -53 13 -63 17 -11 5 -18 2 -21
-11 -3 -10 -8 -28 -12 -40 -5 -18 0 -23 31 -33 56 -19 156 -16 200 6 55 27 87
78 81 131 -6 61 -36 94 -116 132 -83 39 -100 61 -77 97 22 32 57 39 111 22
l44 -15 11 30 c14 42 14 44 -21 56 -46 16 -139 13 -177 -6z"/>
<path d="M5608 1590 c-74 -40 -117 -123 -118 -231 -1 -164 115 -254 296 -228
91 13 96 16 88 53 -9 44 -12 46 -41 35 -38 -14 -137 -13 -169 2 -32 16 -74 73
-74 100 0 18 11 19 154 19 176 0 173 -2 160 87 -11 78 -50 140 -106 169 -40
21 -145 17 -190 -6z m157 -72 c14 -13 30 -40 34 -60 l9 -38 -109 0 c-69 0
-109 4 -109 10 0 24 40 87 62 97 38 19 85 15 113 -9z"/>
<path d="M6538 1590 c-71 -38 -117 -123 -118 -220 0 -107 40 -179 123 -222 46
-23 156 -27 227 -8 40 11 41 12 34 43 -9 45 -12 47 -40 37 -36 -14 -144 -12
-174 3 -29 15 -70 72 -70 98 0 17 13 19 158 21 l157 3 3 28 c10 84 -40 187
-109 223 -41 21 -146 18 -191 -6z m163 -79 c16 -16 29 -36 29 -44 0 -9 3 -22
6 -31 5 -14 -8 -16 -105 -16 -71 0 -111 4 -111 10 0 21 30 69 56 89 39 31 89
28 125 -8z"/>
<path d="M7089 1595 c-15 -8 -36 -29 -48 -47 l-21 -33 0 43 0 42 -45 0 -45 0
0 -235 0 -235 50 0 50 0 0 128 c0 193 26 252 110 252 l40 0 0 50 c0 50 0 50
-32 50 -18 -1 -45 -7 -59 -15z"/>
</g>
</svg>
